<?xml version="1.0" standalone="no"?>
<!DOCTYPE svg PUBLIC "-//W3C//DTD SVG 20010904//EN"
 "http://www.w3.org/TR/2001/REC-SVG-20010904/DTD/svg10.dtd">
<svg version="1.0" xmlns="http://www.w3.org/2000/svg"
 width="128.000000pt" height="92.000000pt" viewBox="0 0 128.000000 92.000000"
 preserveAspectRatio="xMidYMid meet">

<g transform="translate(0.000000,92.000000) scale(0.100000,-0.100000)"
fill="#000000" stroke="none">
<path d="M477 698 c-8 -13 -46 -78 -85 -146 l-71 -122 60 -101 c32 -55 59
-103 59 -105 0 -2 11 -22 25 -44 l26 -40 172 2 172 3 82 143 82 143 -60 100
c-32 55 -59 103 -59 105 0 2 -11 22 -25 44 l-25 40 -170 0 c-165 0 -170 -1
-183 -22z m102 -148 c4 0 13 -11 19 -25 11 -23 9 -29 -13 -51 -21 -21 -28 -23
-47 -13 -43 23 -49 48 -17 80 11 11 27 18 36 15 8 -3 18 -6 22 -6z m211 -8
c47 -38 -10 -110 -59 -76 -29 21 -29 72 2 84 31 12 32 12 57 -8z m14 -204 c8
-13 8 -23 0 -35 -10 -15 -30 -18 -139 -21 -85 -2 -132 1 -141 9 -17 14 -18 56
-1 63 6 2 70 4 141 3 111 -2 130 -4 140 -19z"/>
</g>
</svg>
